name Walk3.mot
datacolumns 19
datarows 22
range 2.65500000 2.76000000
endheader

                time	   L_ground_force_vx	   L_ground_force_vy	   L_ground_force_vz	   L_ground_force_px	   L_ground_force_py	   L_ground_force_pz	   R_ground_force_vx	   R_ground_force_vy	   R_ground_force_vz	   R_ground_force_px	   R_ground_force_py	   R_ground_force_pz	   L_ground_torque_x	   L_ground_torque_y	   L_ground_torque_z	   R_ground_torque_x	   R_ground_torque_y	   R_ground_torque_z	
          2.65500000	         -0.37874012	         -0.15654257	          0.03666884	          0.00972466	          0.00000000	          0.00246744	         -0.15371322	        -22.49646314	         -0.13483284	         -0.14410423	          0.00000000	          0.21338669	          0.00000000	          0.00642151	          0.00000000	          0.00000000	          0.00097835	          0.00000000	
          2.66000000	          0.32278857	         -0.44223464	          0.00049634	         -0.02060020	          0.00000000	         -0.00643113	         -0.12966135	        -21.71926626	         -0.10019122	         -0.14320266	          0.00000000	          0.21607546	          0.00000000	         -0.00241710	          0.00000000	          0.00000000	         -0.00275729	          0.00000000	
          2.66500000	          0.13199205	         -0.10754184	         -0.00383927	         -0.00685605	          0.00000000	         -0.00207869	         -0.06949672	        -19.26630401	         -0.00296191	         -0.14213841	          0.00000000	          0.22293124	          0.00000000	         -0.00137745	          0.00000000	          0.00000000	         -0.00873832	          0.00000000	
          2.67000000	          0.00214092	          0.01770542	         -0.00113496	          0.00030479	          0.00000000	          0.00011252	         -0.04213369	        -16.96141518	          0.07099562	         -0.14279956	          0.00000000	          0.22765969	          0.00000000	         -0.00012559	          0.00000000	          0.00000000	         -0.00374887	          0.00000000	
          2.67500000	         -0.01371996	          0.01665532	          0.00009702	          0.00082979	          0.00000000	          0.00025725	         -0.03985544	        -15.35903795	          0.15125395	         -0.14370394	          0.00000000	          0.23285895	          0.00000000	          0.00011411	          0.00000000	          0.00000000	          0.01528606	          0.00000000	
          2.68000000	         -0.00409572	          0.00276870	          0.00015048	          0.00020059	          0.00000000	          0.00006023	         -0.08695213	        -16.94593614	          0.11696653	         -0.14402171	          0.00000000	          0.23059863	          0.00000000	          0.00004576	          0.00000000	          0.00000000	          0.03092999	          0.00000000	
          2.68500000	          0.00033548	         -0.00102768	          0.00003185	         -0.00003356	          0.00000000	         -0.00001096	         -0.13947440	        -20.81301299	         -0.05417618	         -0.14403296	          0.00000000	          0.21936048	          0.00000000	          0.00000050	          0.00000000	          0.00000000	          0.01357352	          0.00000000	
          2.69000000	          0.00053890	         -0.00058982	         -0.00000736	         -0.00003122	          0.00000000	         -0.00000962	         -0.15426186	        -22.32402976	         -0.12781764	         -0.14396961	          0.00000000	          0.21451696	          0.00000000	         -0.00000482	          0.00000000	          0.00000000	          0.00124897	          0.00000000	
          2.69500000	          0.00011535	         -0.00005457	         -0.00000553	         -0.00000515	          0.00000000	         -0.00000152	         -0.15424474	        -22.33701582	         -0.12887641	         -0.14393151	          0.00000000	          0.21436492	          0.00000000	         -0.00000141	          0.00000000	          0.00000000	          0.00044473	          0.00000000	
          2.70000000	         -0.00002600	          0.00004864	         -0.00000076	          0.00000194	          0.00000000	          0.00000062	         -0.14713226	        -22.00282681	         -0.11651545	         -0.14399074	          0.00000000	          0.21519061	          0.00000000	          0.00000013	          0.00000000	          0.00000000	          0.00066474	          0.00000000	
          2.70500000	         -0.00001984	          0.00001962	          0.00000039	          0.00000110	          0.00000000	          0.00000034	         -0.11334609	        -20.92813541	         -0.08710954	         -0.14435038	          0.00000000	          0.21735431	          0.00000000	          0.00000019	          0.00000000	          0.00000000	         -0.00434930	          0.00000000	
          2.71000000	         -0.00000276	          0.00000025	          0.00000019	          0.00000010	          0.00000000	          0.00000003	         -0.07903498	        -19.92639209	         -0.06204759	         -0.14469645	          0.00000000	          0.21939136	          0.00000000	          0.00000004	          0.00000000	          0.00000000	         -0.01013076	          0.00000000	
          2.71500000	          0.00000137	         -0.00000206	          0.00000001	         -0.00000009	          0.00000000	         -0.00000003	         -0.11285283	        -21.07983024	         -0.09489087	         -0.14428494	          0.00000000	          0.21713730	          0.00000000	         -0.00000001	          0.00000000	          0.00000000	         -0.00514764	          0.00000000	
          2.72000000	          0.00000069	         -0.00000061	         -0.00000002	         -0.00000004	          0.00000000	         -0.00000001	         -0.14564542	        -21.78180836	         -0.10461642	         -0.14411753	          0.00000000	          0.21511259	          0.00000000	         -0.00000001	          0.00000000	          0.00000000	          0.00073854	          0.00000000	
          2.72500000	          0.00000004	          0.00000005	         -0.00000001	         -0.00000000	          0.00000000	         -0.00000000	         -0.15462352	        -20.44510829	         -0.03025137	         -0.14483514	          0.00000000	          0.21607247	          0.00000000	         -0.00000000	          0.00000000	          0.00000000	          0.00766952	          0.00000000	
          2.73000000	         -0.00000006	          0.00000008	          0.00000000	          0.00000000	          0.00000000	          0.00000000	         -0.16772882	        -18.96612769	          0.04351596	         -0.14544211	          0.00000000	          0.21978672	          0.00000000	          0.00000000	          0.00000000	          0.00000000	          0.01984550	          0.00000000	
          2.73500000	         -0.00000002	          0.00000002	          0.00000000	          0.00000000	          0.00000000	          0.00000000	         -0.16462386	        -18.78610490	          0.03604080	         -0.14534436	          0.00000000	          0.22342026	          0.00000000	          0.00000000	          0.00000000	          0.00000000	          0.02152537	          0.00000000	
          2.74000000	          0.00000000	         -0.00000000	          0.00000000	         -0.00000000	          0.00000000	         -0.00000000	         -0.10905544	        -18.44714153	          0.01613024	         -0.14559242	          0.00000000	          0.22512484	          0.00000000	          0.00000000	          0.00000000	          0.00000000	          0.00513606	          0.00000000	
          2.74500000	          0.00000000	         -0.00000000	         -0.00000000	         -0.00000000	          0.00000000	         -0.00000000	         -0.05386850	        -17.67649383	          0.03168533	         -0.14585235	          0.00000000	          0.22503820	          0.00000000	         -0.00000000	          0.00000000	          0.00000000	         -0.00127664	          0.00000000	
          2.75000000	          0.00000000	         -0.00000000	         -0.00000000	         -0.00000000	          0.00000000	         -0.00000000	         -0.06777156	        -18.62820320	         -0.00684609	         -0.14474585	          0.00000000	          0.22083601	          0.00000000	         -0.00000000	          0.00000000	          0.00000000	         -0.00353205	          0.00000000	
          2.75500000	         -0.00000000	          0.00000000	         -0.00000000	          0.00000000	          0.00000000	          0.00000000	         -0.12750153	        -21.15630929	         -0.09302923	         -0.14399823	          0.00000000	          0.21583725	          0.00000000	          0.00000000	          0.00000000	          0.00000000	         -0.00226167	          0.00000000	
          2.76000000	         -0.00000000	          0.00000000	          0.00000000	          0.00000000	          0.00000000	          0.00000000	         -0.13543945	        -21.39273600	         -0.09907457	         -0.14400688	          0.00000000	          0.21701730	          0.00000000	          0.00000000	          0.00000000	          0.00000000	         -0.00443067	          0.00000000	
